# xmcd
#
# Track frame offsets:
#	150
#	10776
#	20744
#	30507
#	42343
#	55628
#	68366
#	78245
#	93169
#	107137
#	121338
#	138711
#	148345
#
# Disc length: 2070 seconds
#
# Revision: 0
# Processed by: cddbd v1.5.2PL0 Copyright (c) Steve Scherf et al.
# Submitted via: EasyCDDAExtractor 16.0.6.1
#
DISCID=a608140d
DTITLE=Συλλογικός δίσκος - Εκατό τραγούδια-Μ. Χατζιδάκις 07
DYEAR=2008
DGENRE=Ποικίλη
TTITLE0=Άνευ ερμηνευτού - Πανόραμα [ορχηστρικό]
TTITLE1=Βουγιουκλάκη Αλίκη - Χτυποκάρδια
TTITLE2=Άνευ ερμηνευτού - Τα πουλάκια [ορχηστρικό]
TTITLE3=Βάνου Τζένη - Το γκρίζο γατί
TTITLE4=Άνευ ερμηνευτού - Η κλέφτρα του Λονδίνου [ορχηστρικό]
TTITLE5=Λαμπίρη Ελένη [Έλσα Λάμπο ή Μαργαρίτη] - Ξέρω κάποιο στενό
TTITLE6=Άνευ ερμηνευτού - Η σερενάτα των χωρικών [ορχηστρικό]
TTITLE7=Βουγιουκλάκη Αλίκη - Σ' αγαπώ
TTITLE8=Άνευ ερμηνευτού - Πρωϊνό [ορχηστρικό]
TTITLE9=Βουγιουκλάκη Αλίκη - Ο αμαξάς (Καροτσέρη)
TTITLE10=Άνευ ερμηνευτού - 11/8 [ορχηστρικό]
TTITLE11=Βουγιουκλάκη Αλίκη - Ο χορός της Αλίκης
TTITLE12=Βουγιουκλάκη Αλίκη - Φεύγουν τα νιάτα
EXTD=
EXTT0=
EXTT1=
EXTT2=
EXTT3=
EXTT4=
EXTT5=
EXTT6=
EXTT7=
EXTT8=
EXTT9=
EXTT10=
EXTT11=
EXTT12=
PLAYORDER=
